<?xml version="1.0" encoding="UTF-8"?>
<!DOCTYPE svg PUBLIC "-//W3C//DTD SVG 1.1//EN" "http://www.w3.org/Graphics/SVG/1.1/DTD/svg11.dtd">
<!-- Creator: CorelDRAW Home & Student 2014 -->
<svg xmlns="http://www.w3.org/2000/svg" xml:space="preserve" width="40px" height="40px" version="1.1" style="shape-rendering:geometricPrecision; text-rendering:geometricPrecision; image-rendering:optimizeQuality; fill-rule:evenodd; clip-rule:evenodd"
viewBox="0 0 40 40"
 xmlns:xlink="http://www.w3.org/1999/xlink">
 <defs>
  <style type="text/css">
   <![CDATA[
    .fil0 {fill:#011030}
    .fil1 {fill:#2C3E50}
    .fil2 {fill:black;fill-rule:nonzero}
   ]]>
  </style>
   <clipPath id="id0">
    <path d="M2 7l36 0c1,0 1,1 1,1l0 24c0,0 0,1 -1,1l-36 0c-1,0 -1,-1 -1,-1l0 -24c0,0 0,-1 1,-1z"/>
   </clipPath>
    <mask id="id1">
  <linearGradient id="id2" gradientUnits="userSpaceOnUse" x1="18.0943" y1="12.7931" x2="21.9057" y2="27.2069">
   <stop offset="0" style="stop-opacity:1; stop-color:white"/>
   <stop offset="0.760784" style="stop-opacity:0.192157; stop-color:white"/>
   <stop offset="1" style="stop-opacity:0.619608; stop-color:white"/>
  </linearGradient>
     <rect style="fill:url(#id2)" x="1" y="7" width="38.0006" height="25.0004"/>
    </mask>
   <clipPath id="id3">
    <path d="M2 7l36 0c1,0 1,1 1,1l0 24c0,0 0,1 -1,1l-36 0c-1,0 -1,-1 -1,-1l0 -24c0,0 0,-1 1,-1z"/>
   </clipPath>
    <clipPath id="id4">
     <path d="M2 7l36 0c1,0 1,1 1,1l0 24c0,0 0,1 -1,1l-36 0c-1,0 -1,-1 -1,-1l0 -24c0,0 0,-1 1,-1z"/>
    </clipPath>
    <clipPath id="id5">
     <path d="M2 7l36 0c1,0 1,1 1,1l0 24c0,0 0,1 -1,1l-36 0c-1,0 -1,-1 -1,-1l0 -24c0,0 0,-1 1,-1z"/>
    </clipPath>
 </defs>
 <g id="background">
  <metadata id="CorelCorpID_0Corel-Layer"/>
  <rect class="fil0" y="6" width="40" height="27.3482" rx="1" ry="1"/>
  <g style="clip-path:url(#id0)">
   <polygon class="fil1" style="mask:url(#id1)" points="1,7 39,7 39,33 1,33 "/>
  </g>
  <g style="clip-path:url(#id3)">
   <g id="_181385456">
   </g>
   <g style="clip-path:url(#id4)">
    <image x="-6" y="4" width="52.9679" height="32.4242" xlink:href="background_Images\background_ImgID1.png"/>
   </g>
   <g style="clip-path:url(#id5)">
   </g>
  </g>
  <g>
   <path class="fil2" d="M38 8l-36 0 0 -1 36 0 0 0 0 1zm1 0l0 0 0 0 0 0 0 0 0 0 0 0 0 0 0 0 0 0 0 0 0 0 0 0 0 0 0 0 0 0 0 0 0 0 0 0 0 0 0 0 0 0 -1 0 0 0 0 0 0 0 0 0 0 0 0 0 0 0 0 0 0 0 0 0 0 0 0 0 0 -1 0 0 0 0 0 0 0 0 0 0 0 0 0 0 0 0 0 0 1 0 0 1 0 0 0 0 0 0 0 0 0 0 0 0 0 0 0 0 0 0 0 0 0 0 0 0 0 0 0 0 0 0 0 0 0 0 0 0 0 0 0 0 0 0 0 0zm0 24l0 -24 0 0 0 24 0 0 0 0zm-1 1l0 -1 0 0 0 0 0 0 0 0 0 0 0 0 0 0 0 0 0 0 0 0 0 0 0 0 0 0 1 0 0 0 0 0 0 0 0 0 0 0 0 0 0 0 0 0 0 0 0 0 0 0 0 0 0 0 0 0 0 0 0 0 0 0 0 0 0 0 0 0 0 0 0 0 0 0 0 0 0 0 0 0 0 0 0 0 0 0 0 0 0 0 0 0 0 0 0 0 0 0 0 0 0 0 0 0 0 0 0 0 0 0 0 1 -1 0 0 0 0 0 0 0 0 0 0 0 0 0 0 0 0 0 0 0 0 0zm-36 -1l36 0 0 1 -36 0 0 0 0 -1zm-1 0l0 0 0 0 0 0 0 0 0 0 0 0 0 0 0 0 0 0 0 0 0 0 0 0 0 0 0 0 0 0 0 0 0 0 0 0 0 0 0 0 0 0 1 0 0 0 0 0 0 0 0 0 0 0 0 0 0 0 0 0 0 0 0 0 0 0 0 0 0 1 0 0 0 0 0 0 0 0 0 0 0 0 0 0 0 0 0 0 -1 0 0 -1 0 0 0 0 0 0 0 0 0 0 0 0 0 0 0 0 0 0 0 0 0 0 0 0 0 0 0 0 0 0 0 0 0 0 0 0 0 0 0 0 0 0 0 0zm0 -24l0 24 0 0 0 -24 0 0 0 0zm1 -1l0 1 0 0 0 0 0 0 0 0 0 0 0 0 0 0 0 0 0 0 0 0 0 0 0 0 0 0 -1 0 0 0 0 0 0 0 0 0 0 0 0 0 0 0 0 0 0 0 0 0 0 0 0 0 0 0 0 0 0 0 0 0 0 0 0 0 0 0 0 0 0 0 0 0 0 0 0 0 0 0 0 0 0 0 0 0 0 0 0 0 0 0 0 0 0 0 0 0 0 0 0 0 0 0 0 0 0 0 0 0 0 0 0 -1 1 0 0 0 0 0 0 0 0 0 0 0 0 0 0 0 0 0 0 0 0 0z"/>
  </g>
 </g>
</svg>
